<svg xmlns="http://www.w3.org/2000/svg" version="1.1" xmlns:xlink="http://www.w3.org/1999/xlink" xmlns:svgjs="http://svgjs.dev/svgjs" width="1000" height="1000" viewBox="0 0 1000 1000"><rect width="1000" height="1000" fill="#89939e"></rect><g transform="matrix(0.7,0,0,0.7,149.57575757575756,383.6444958797537)"><svg viewBox="0 0 396 132" data-background-color="#89939e" preserveAspectRatio="xMidYMid meet" height="333" width="1000" xmlns="http://www.w3.org/2000/svg" xmlns:xlink="http://www.w3.org/1999/xlink"><g id="tight-bounds" transform="matrix(1,0,0,1,0.2400000000000091,-0.11013923692618732)"><svg viewBox="0 0 395.52 132.22027847385235" height="132.22027847385235" width="395.52"><g><svg viewBox="0 0 641.6148852261321 214.48851839999998" height="132.22027847385235" width="395.52"><g transform="matrix(1,0,0,1,0,4.984396249383082)"><svg viewBox="0 0 395.52 204.5197259012338" height="204.5197259012338" width="395.52"><g><svg viewBox="0 0 395.52 204.5197259012338" height="204.5197259012338" width="395.52"><g><svg viewBox="0 0 395.52 133.88216856492028" height="133.88216856492028" width="395.52"><g transform="matrix(1,0,0,1,0,0)"><svg width="395.52" viewBox="-0.49000000953674316 -35.790000915527344 107.16999816894531 36.28000259399414" height="133.88216856492028" data-palette-color="#000000"><path d="M18.95 0.49L18.95 0.49 16.99 0Q14.6-7.67 11.8-14.54 9.01-21.41 5.05-30L5.05-30Q4.3-31.69 3.49-32.42 2.69-33.15 1.82-33.15 0.95-33.15-0.24-33.06L-0.24-33.06-0.49-33.54Q3.61-35.6 6.59-35.6L6.59-35.6Q7.91-33.01 9.11-30.41 10.3-27.81 11.63-24.58 12.96-21.36 13.65-19.67 14.33-17.97 15.93-13.87 17.53-9.77 17.94-8.69L17.94-8.69Q18.7-6.91 18.9-4.76L18.9-4.76 19.31-4.76Q19.38-4.93 19.85-6.47 20.31-8.01 20.95-9.55L20.95-9.55 30.05-32.59Q30.2-33.52 29.24-33.89 28.27-34.25 26.15-34.06L26.15-34.06 26-34.5Q29.15-35.4 32.74-35.4L32.74-35.4Q32.93-35.4 33.02-35.24 33.11-35.08 33.06-34.91L33.06-34.91Q32.79-34.01 32.48-33.06 32.18-32.1 18.95 0.49ZM35.18-0.49L50.1-33.84Q50.93-34.35 52-35.79L52-35.79 52.24-35.79 65.7-3.39Q66.6-1.22 69.38-0.34L69.38-0.34 69.38 0.1Q67.8-0.07 65.57 0.04 63.35 0.15 61.64 0.44L61.64 0.44 61.45 0.2Q61.94-0.44 61.68-1.93 61.42-3.42 60.18-6.45L60.18-6.45 56.15-16.55Q48.97-16.67 44.28-16.5L44.28-16.5 38.64-3.39Q38.13-2.27 39.02-1.51 39.91-0.76 42.53-0.24L42.53-0.24 42.43 0.2Q38.18-0.12 35.5 0L35.5 0Q35.35-0.15 35.18-0.49L35.18-0.49ZM50.44-30.69L44.94-17.94Q48.48-17.85 55.54-17.94L55.54-17.94 50.44-30.69ZM80.24-32.54L80.24-32.54 80.24-2.15Q81.56-1.98 82.78-1.89 84-1.81 85.18-1.81L85.18-1.81Q89.3-1.81 92.57-2.87 95.84-3.93 98.12-6.09 100.39-8.25 101.59-11.49 102.8-14.72 102.8-19.09L102.8-19.09Q102.78-21.97 102.07-24.19 101.36-26.42 100.09-28.06 98.82-29.71 97.1-30.82 95.38-31.93 93.37-32.63 91.35-33.33 89.12-33.62 86.88-33.91 84.59-33.91L84.59-33.91Q83.49-33.91 82.39-33.84 81.29-33.76 80.15-33.64L80.15-33.64Q80.2-33.3 80.22-33.02 80.24-32.74 80.24-32.54ZM72.19-33.74L72.09-34.45Q74.21-34.72 75.9-34.92 77.58-35.13 79.17-35.28 80.76-35.42 82.44-35.5 84.13-35.57 86.25-35.57L86.25-35.57Q88.08-35.57 89.59-35.47 91.11-35.38 92.46-35.14 93.82-34.91 95.12-34.53 96.43-34.16 97.87-33.62L97.87-33.62Q99.8-32.89 101.42-31.65 103.05-30.42 104.22-28.64 105.39-26.86 106.04-24.49 106.68-22.12 106.68-19.09L106.68-19.09Q106.66-15.5 105.76-12.7 104.85-9.89 103.24-7.76 101.63-5.64 99.42-4.15 97.21-2.66 94.62-1.73 92.04-0.81 89.16-0.39 86.27 0.02 83.32 0.02L83.32 0.02Q83.08 0.02 81.72 0.04 80.37 0.05 78.83 0.17 77.29 0.29 76.14 0.44L76.14 0.44 76 0.2Q76.48-0.51 76.48-2.39L76.48-2.39 76.48-28.1Q76.48-29.71 76.34-30.8 76.19-31.88 75.8-32.54 75.41-33.2 74.7-33.48 73.99-33.76 73.36-33.76 72.72-33.76 72.55-33.76 72.38-33.76 72.19-33.74L72.19-33.74Z" opacity="1" transform="matrix(1,0,0,1,0,0)" fill="#000000" class="undefined-text-0" data-fill-palette-color="primary" id="text-0"></path></svg></g></svg></g><g transform="matrix(1,0,0,1,163.310208,165.4885353910524)"><svg viewBox="0 0 232.209792 39.03119051018141" height="39.03119051018141" width="232.209792"><g transform="matrix(1,0,0,1,0,0)"><svg width="232.209792" viewBox="1.5499999523162842 -34.75 270.08001708984375 45.400001525878906" height="39.03119051018141" data-palette-color="#c8c8c8"><path d="M23.75 10.65L23.65 10.65Q23.6 10.65 23.3 10.45L23.3 10.45Q23 10.4 22.05 9.45L22.05 9.45 21.9 9.15Q21.7 9.15 21.65 9.05L21.65 9.05 21.45 8.9 17.5 2.4Q17.3 1.85 16.75 1.05L16.75 1.05Q12.3 0.8 9.2-0.65L9.2-0.65Q5.5-2.3 3.7-5.65L3.7-5.65Q1.55-9.25 1.55-15.65L1.55-15.65Q1.55-20.8 2.7-24.4 3.85-28 6.25-30.3L6.25-30.3Q8.6-32.6 12.4-33.68 16.2-34.75 21.65-34.75L21.65-34.75Q25.9-34.75 29.65-33.45L29.65-33.45Q34.3-31.7 36.8-28.4L36.8-28.4Q39.95-24.25 39.95-17.75L39.95-17.75Q39.95-10 37.5-5.65L37.5-5.65Q35.25-1.6 30.75-0.05L30.75-0.05Q32.4 2.15 33 3.15L33 3.15Q34.05 4.75 34.05 5.45L34.05 5.45Q34.05 5.9 33.65 6.3 33.25 6.7 32.4 7.3L32.4 7.3 30.95 8.05Q30.6 8.3 30.3 8.47 30 8.65 29.8 8.8L29.8 8.8 28.9 9.05Q28.45 9.25 27.9 9.4L27.9 9.4Q27.85 9.4 27.68 9.45 27.5 9.5 27.25 9.65L27.25 9.65Q26.05 10.05 24.8 10.3L24.8 10.3Q24.45 10.4 24.15 10.4L24.15 10.4Q24.15 10.65 23.95 10.65L23.95 10.65 23.75 10.65ZM20.75-3.65Q21.3-3.65 21.75-4.4L21.75-4.4Q22.55-6.2 22.8-9.45L22.8-9.45Q22.95-11.3 23.05-15.4L23.05-15.4 23.05-17.4 23.05-18.65Q22.9-22.65 22.8-24L22.8-24Q22.6-27.15 21.75-29.15L21.75-29.15Q21.3-30 20.75-30L20.75-30Q19.75-30 19.15-27.9L19.15-27.9Q18.7-25.4 18.65-22.65L18.65-22.65Q18.5-20.65 18.5-16.4L18.5-16.4Q18.5-13.55 18.65-11.7L18.65-11.7Q18.7-8.9 19.15-6.25L19.15-6.25Q19.7-3.65 20.75-3.65L20.75-3.65ZM67.95 0.55Q65.75-1.6 64.2-3.8L64.2-3.8Q63.1-5.25 60.8-8.95L60.8-8.95 59.95-10.3Q59.9-10.35 59.87-10.38 59.85-10.4 59.85-10.4L59.85-10.4 59.6-10.4 59.4-10.3Q59.35-9.65 59.35-6.8L59.35-6.8Q59.35-4.95 59.15-2.45L59.15-2.45 59.1-0.95Q58.9-0.4 58.85-0.4L58.85-0.4 58.5-0.4 58.35-0.4Q52.85 0 50.35 0L50.35 0 49.6 0 48.65 0Q48.1 0 47.85-0.05L47.85-0.05 47.5-0.05 45.95-0.55 45.85-0.9Q45.75-0.9 45.72-1.1 45.7-1.3 45.7-1.4L45.7-1.4Q45.55-3.5 45.45-4.45L45.45-4.45Q45.25-7.15 45.2-8.4L45.2-8.4Q45.1-9.6 45.1-9.95L45.1-9.95 44.85-12.7 44.8-14.2Q44.75-14.65 44.75-15.45L44.75-15.45 44.75-15.9Q44.85-16.15 44.85-16.7L44.85-16.7 44.85-17.55Q44.9-17.75 44.9-18L44.9-18 44.85-18.4 44.85-18.9Q44.85-19.25 44.75-19.45L44.75-19.45 44.75-19.75 44.8-21Q44.85-21.35 44.85-22.05L44.85-22.05Q44.95-23.55 44.95-24.9L44.95-24.9 44.95-25.4Q44.9-25.55 44.9-26.05L44.9-26.05 44.9-26.75 44.9-27.25Q44.75-27.4 44.75-27.55L44.75-27.55Q44.75-28.25 46-28.55L46-28.55Q46.65-28.75 47.85-28.75L47.85-28.75Q59.55-28.75 65.35-27.95L65.35-27.95Q71.05-27.15 73.35-25.2L73.35-25.2Q74.35-24.25 74.77-22.98 75.2-21.7 75.2-19.95L75.2-19.95Q75.2-17.15 73.6-15.25L73.6-15.25Q72.55-14.2 71.15-13.5L71.15-13.5Q71.45-12.75 72.9-10.5L72.9-10.5Q73.2-10.15 73.47-9.75 73.75-9.35 74.15-8.9L74.15-8.9Q75.1-7.6 76.35-6.05L76.35-6.05Q76.4-5.85 76.75-5.2L76.75-5.2Q77-5.1 77.02-4.98 77.05-4.85 76.95-4.65L76.95-4.65Q76.55-4.05 74.6-2.9L74.6-2.9Q74.35-2.65 74-2.4L74-2.4Q73-1.6 71.25-0.75L71.25-0.75Q69.65 0.1 68.5 0.45L68.5 0.45Q68.05 0.7 67.95 0.55L67.95 0.55ZM58.85-17.05Q59.5-17.05 60.6-17.3L60.6-17.3Q61.65-17.6 62.1-17.9L62.1-17.9Q62.85-18.35 63.4-18.9L63.4-18.9Q63.95-19.55 63.95-20.4L63.95-20.4Q63.95-21.8 63.1-22.65L63.1-22.65Q62.35-23.25 61.25-23.25L61.25-23.25 59.1-23.25Q59.1-22.6 59-21.2L59-21.2 58.95-20.15Q58.85-19.15 58.85-17.05L58.85-17.05ZM107.04 1.2Q103.49 1.2 101.37 1.03 99.24 0.85 97.99 0.4L97.99 0.4Q96.69-0.15 96.09-1.1 95.49-2.05 95.49-3.65L95.49-3.65 95.49-4.9Q95.54-5.4 95.54-6.4L95.54-6.4Q95.59-6.9 95.59-7.9L95.59-7.9Q95.64-8.4 95.64-8.95L95.64-8.95Q95.64-10.85 95.54-14.65L95.54-14.65 95.49-17.65Q95.24-21.2 95.24-26.25L95.24-26.25 95.24-27.95 95.24-29.5Q95.24-31.25 95.39-32.05L95.39-32.05Q95.49-32.3 95.52-32.5 95.54-32.7 95.54-32.8L95.54-32.8Q95.59-33.7 96.29-34.15L96.29-34.15Q96.69-34.3 97.39-34.3L97.39-34.3Q97.84-34.3 98.37-34.35 98.89-34.4 99.49-34.4L99.49-34.4Q100.29-34.4 101.99-34.5L101.99-34.5Q102.44-34.55 103.07-34.6 103.69-34.65 104.49-34.65L104.49-34.65Q106.09-34.75 106.74-34.75L106.74-34.75Q110.84-34.75 116.34-33.95L116.34-33.95Q120.19-33.5 122.34-33L122.34-33Q125.99-32.1 127.89-30.65L127.89-30.65Q130.34-28.55 130.34-25.3L130.34-25.3Q130.34-21.1 126.89-18.95L126.89-18.95Q126.64-18.8 126.44-18.73 126.24-18.65 126.04-18.55L126.04-18.55Q125.14-18.3 124.49-17.9L124.49-17.9Q124.39-17.85 124.24-17.73 124.09-17.6 123.99-17.4L123.99-17.4Q123.99-17.4 124.02-17.38 124.04-17.35 124.04-17.3L124.04-17.3Q124.04-17.3 124.14-17.2L124.14-17.2Q127.59-15.8 129.74-13.75L129.74-13.75Q131.34-11.95 131.34-10L131.34-10Q131.34-7.25 127.99-4.45L127.99-4.45Q124.69-1.85 119.84-0.5L119.84-0.5Q116.24 0.5 112.74 0.9L112.74 0.9Q110.09 1.2 107.04 1.2L107.04 1.2ZM112.99-22.15Q113.24-22.15 113.54-22.3L113.54-22.3Q114.84-22.75 115.99-23.4L115.99-23.4Q116.69-23.7 117.37-24.03 118.04-24.35 118.29-24.45L118.29-24.45 118.74-24.65 119.14-24.75Q119.34-24.75 119.34-25L119.34-25Q119.34-25.85 117.49-26.15L117.49-26.15Q116.39-26.4 114.74-26.4L114.74-26.4Q113.24-26.4 112.84-25.25L112.84-25.25Q112.59-24.65 112.59-23.75 112.59-22.85 112.59-22.65L112.59-22.65 112.59-22.4Q112.59-22.15 112.99-22.15L112.99-22.15ZM112.14-7.7L112.24-7.7Q112.24-7.7 112.27-7.7 112.29-7.7 112.29-7.75L112.29-7.75Q115.79-9.45 120.24-11.45L120.24-11.45Q120.44-11.65 120.49-11.65L120.49-11.65 120.74-11.8Q118.64-12.45 116.59-12.65L116.59-12.65Q113.99-12.75 112.29-12.75L112.29-12.75Q111.74-12.75 111.74-12.05L111.74-12.05 111.74-8.05Q111.74-7.7 112.14-7.7L112.14-7.7ZM136.74 0.05Q135.79 0.05 135.99-1.65L135.99-1.65Q135.99-2.25 136.24-3L136.24-3Q136.24-3.35 136.29-3.58 136.34-3.8 136.34-3.95L136.34-3.95Q137.49-9.4 138.89-14.7L138.89-14.7 142.29-28Q142.29-28.1 142.44-28.25 142.59-28.4 142.74-28.5L142.74-28.5 143.09-28.5Q143.69-28.5 144.04-28.65L144.04-28.65Q144.34-28.7 145.09-28.7L145.09-28.7Q146.29-28.7 146.89-28.65L146.89-28.65Q147.79-28.5 148.74-28.5L148.74-28.5 151.34-28.55Q151.74-28.65 152.29-28.65L152.29-28.65 154.49-28.75 156.14-28.75Q157.09-28.75 157.99-28.7L157.99-28.7 159.39-28.7Q159.89-28.65 160.84-28.65L160.84-28.65 162.74-28.65Q162.89-28.65 163.04-28.6 163.19-28.55 163.29-28.5L163.29-28.5Q163.49-28.4 163.79-28.4L163.79-28.4 164.24-28.4Q164.59-28.15 164.59-27.9L164.59-27.9 168.14-14.7Q169.79-8.35 170.74-3.95L170.74-3.95Q170.74-3.7 170.89-3L170.89-3Q171.09-2 171.09-1.4L171.09-1.4Q171.09-1.05 170.99-0.45L170.99-0.45Q170.74 0.05 170.29 0.05L170.29 0.05 169.74 0.05Q169.09 0.05 168.74 0L168.74 0 167.64 0 166.59 0 165.74 0Q165.39 0 165.34-0.05L165.34-0.05 162.59-0.05 162.54-0.15Q162.44-0.25 162.24-0.25L162.24-0.25 162.09-0.15Q162.09-0.05 161.99-0.05L161.99-0.05 161.84-0.05 161.49-0.05Q161.24-0.15 160.59-0.15L160.59-0.15Q159.39-0.25 158.59-0.25L158.59-0.25Q158.04-1.4 157.29-5.3L157.29-5.3Q156.24-5.15 154.89-5.15L154.89-5.15 153.59-5.15 152.34-5.15Q152.14-4.4 152.09-3.9L152.09-3.9Q152.04-3.65 151.69-2.2 151.34-0.75 151.04-0.25L151.04-0.25 150.74-0.15Q150.59-0.1 150.49-0.08 150.39-0.05 150.39-0.05L150.39-0.05 150.29-0.05Q149.99-0.05 149.89-0.15L149.89-0.15Q149.69-0.25 149.64-0.25L149.64-0.25 147.74-0.15 146.34-0.15Q146.09-0.1 145.94-0.08 145.79-0.05 145.74-0.05L145.74-0.05 141.74-0.05 141.34-0.05Q140.89 0 139.49 0L139.49 0 138.29 0Q137.99 0.05 137.34 0.05L137.34 0.05 136.74 0.05ZM156.84-10.65Q156.54-12.35 156.49-12.65L156.49-12.65 156.09-15.05Q155.99-15.75 155.89-16.32 155.79-16.9 155.74-17.4L155.74-17.4Q155.59-18 155.52-18.53 155.44-19.05 155.34-19.5L155.34-19.5Q155.29-19.8 155.24-20.28 155.19-20.75 155.09-20.95L155.09-20.95 154.99-21.55Q154.99-21.75 154.89-21.9L154.89-21.9 154.84-22.2Q154.74-21.9 154.74-21.9L154.74-21.9 154.74-21.7 154.74-21.55Q154.74-21.5 154.69-21.38 154.64-21.25 154.59-20.95L154.59-20.95Q154.54-20.7 154.49-20.33 154.44-19.95 154.34-19.5L154.34-19.5 153.99-17.45 153.59-15.15 153.44-14.05Q153.34-13.65 153.24-12.75L153.24-12.75Q152.79-10.5 152.84-10.7L152.84-10.7 155.04-10.7Q155.09-10.75 155.19-10.83 155.29-10.9 155.34-10.9L155.34-10.9 155.49-10.9Q155.74-10.9 155.92-10.85 156.09-10.8 156.24-10.75L156.24-10.75Q156.54-10.65 156.84-10.65L156.84-10.65ZM183.04 1.15L182.44 1 181.29 0.8Q179.64 0.55 178.54 0.2L178.54 0.2Q177.94 0.15 177.49-0.15L177.49-0.15Q177.09-0.3 176.99-0.55L176.99-0.55 175.89-6.75 175.89-7Q175.89-7.35 175.96-7.53 176.04-7.7 176.29-7.75L176.29-7.75Q179.54-6.5 182.69-6.5L182.69-6.5Q183.69-6.5 184.24-6.45L184.24-6.45Q186.14-6.45 186.99-6.95L186.99-6.95Q187.44-7.25 187.44-7.8L187.44-7.8Q187.44-8.6 186.94-9.13 186.44-9.65 185.49-10.05L185.49-10.05 183.89-10.65Q183.19-10.8 182.29-11.2L182.29-11.2Q182.29-11.25 182.24-11.28 182.19-11.3 182.14-11.4L182.14-11.4Q181.94-11.45 181.29-11.9L181.29-11.9 180.99-12.05Q181.09-12.05 181.09-12.1 181.09-12.15 180.94-12.2L180.94-12.2Q180.79-12.3 180.36-12.53 179.94-12.75 179.64-13.05L179.64-13.05Q179.19-13.3 179.19-13.65L179.19-13.65 179.19-13.9Q177.94-13.9 177.04-16.5L177.04-16.5Q176.29-19.15 176.29-20.25L176.29-20.25Q176.29-24.9 180.29-27.4L180.29-27.4Q183.54-29.45 189.24-30.15L189.24-30.15Q192.94-30.55 198.44-30.55L198.44-30.55Q199.14-30.3 199.54-30.25L199.54-30.25Q200.44-30.2 200.74-29.65L200.74-29.65Q200.89-29.4 200.99-28.65L200.99-28.65Q201.14-27.85 201.29-24L201.29-24Q201.39-23.9 201.39-23.7L201.39-23.7Q201.39-23.3 200.29-23.05L200.29-23.05Q199.09-22.9 198.74-22.9L198.74-22.9 197.59-22.75Q195.64-22.5 195.04-22.4L195.04-22.4Q192.99-22.05 192.19-21.15L192.19-21.15Q191.69-20.55 191.69-19.9L191.69-19.9Q191.69-19.55 191.79-19.35 191.89-19.15 192.29-18.9L192.29-18.9Q192.74-18.65 194.89-17.65L194.89-17.65Q197.19-16.65 199.49-15.05L199.49-15.05Q201.44-13.7 202.29-11.45L202.29-11.45Q202.74-10.5 202.74-8.95L202.74-8.95Q202.74-7.55 202.39-6.55L202.39-6.55Q201.09-3.25 197.49-1.15L197.49-1.15Q195.79-0.15 193.94 0.43 192.09 1 190.39 1L190.39 1 183.04 1.15ZM209.54-0.2Q209.44-0.2 209.39-0.4L209.39-0.4Q209.04-0.85 208.89-1.5L208.89-1.5Q208.74-1.75 208.64-2.15L208.64-2.15Q208.19-3.05 207.99-4.65L207.99-4.65Q207.79-6.95 207.79-8.3L207.79-8.3Q207.74-8.9 207.74-9.95L207.74-9.95 207.74-11.15Q207.74-12.65 207.69-13.5L207.69-13.5Q207.64-14.4 207.64-17.05L207.64-17.05Q207.64-24.15 207.94-28L207.94-28Q207.94-28.6 209.64-28.9L209.64-28.9 211.14-28.9 212.39-28.9Q215.24-28.9 216.64-28.8L216.64-28.8Q218.74-28.65 220.89-28.65L220.89-28.65Q221.39-28.65 221.64-28.7L221.64-28.7 222.39-28.7 222.64-28.5Q224.29-28.85 226.04-28.95 227.79-29.05 230.29-29.05L230.29-29.05Q230.39-29.05 230.54-28.9L230.54-28.9 232.14-28.9Q232.54-28.9 232.76-28.45 232.99-28 233.14-27.15L233.14-27.15Q233.34-26.5 233.44-25.55L233.44-25.55Q233.64-24.3 233.79-23.9L233.79-23.9Q233.79-22.5 233.29-22.5L233.29-22.5Q233.24-22.5 233.14-22.65L233.14-22.65 232.94-22.7Q232.69-22.75 232.39-22.65L232.39-22.65Q232.09-22.5 231.74-22.5L231.74-22.5Q231.44-22.5 231.24-22.65L231.24-22.65Q231.14-22.7 230.79-22.7L230.79-22.7Q230.34-22.7 229.74-22.55L229.74-22.55Q229.54-22.5 228.96-22.4 228.39-22.3 227.64-22.3L227.64-22.3Q225.49-22.3 224.54-22.2L224.54-22.2Q223.99-22.15 223.49-21.9L223.49-21.9 223.49-22Q223.29-22 223.14-21.5L223.14-21.5Q222.79-20.65 222.69-19.15L222.69-19.15Q222.64-18.7 222.64-18.15L222.64-18.15Q222.64-17.6 222.81-17.4 222.99-17.2 223.39-17.2L223.39-17.2Q223.69-17.2 223.89-17.4L223.89-17.4Q223.99-17.4 224.14-17.35 224.29-17.3 224.39-17.2L224.39-17.2 228.64-17.2Q228.69-17.3 228.79-17.35 228.89-17.4 228.99-17.4L228.99-17.4Q229.49-17.4 229.74-17.25L229.74-17.25Q230.04-17.1 230.94-16.95L230.94-16.95Q231.44-16.95 231.64-16.65L231.64-16.65Q231.89-16.3 231.89-16L231.89-16 232.94-12.7Q233.09-11.9 231.44-11.65L231.44-11.65Q230.49-11.45 227.79-11.45L227.79-11.45 225.64-11.45 224.14-11.45Q223.44-11.45 223.09-11.38 222.74-11.3 222.64-11L222.64-11Q222.44-10.75 222.44-10.2L222.44-10.2 222.44-10Q222.44-9.75 222.49-9.65L222.49-9.65 222.44-8.55Q222.39-8.2 222.39-7.5L222.39-7.5 222.39-7 222.39-6.55 222.39-6.25Q224.64-6.25 226.99-6.4L226.99-6.4Q229.29-6.55 231.54-6.55L231.54-6.55Q231.69-6.55 231.79-6.33 231.89-6.1 231.89-5.8L231.89-5.8Q231.99-5.5 231.99-5.15L231.99-5.15Q232.09-4.4 232.29-3.75L232.29-3.75 232.64-2.3 232.64-1.3 232.64-1.15 232.64-0.75 232.24-0.4 231.89-0.4 231.74-0.4Q231.19-0.4 231.04-0.45L231.04-0.45Q230.89-0.55 230.69-0.55L230.69-0.55Q230.59-0.5 230.39-0.4 230.19-0.3 230.04-0.2L230.04-0.2 230.04-0.45 229.44-0.4 228.69-0.4Q228.49-0.4 228.39-0.5L228.39-0.5 227.99-0.55Q226.14-0.55 225.39-0.2L225.39-0.2 209.54-0.2ZM247.18 0Q245.28-0.05 240.63-0.05L240.63-0.05Q239.93-0.05 239.68-0.95L239.68-0.95Q239.53-1.45 239.53-2.7L239.53-2.7Q239.53-4.95 239.43-6.65L239.43-6.65Q239.43-8.2 239.33-12.3L239.33-12.3 239.28-18.3 239.28-27.75Q239.28-28.1 239.66-28.5 240.03-28.9 240.38-28.9L240.38-28.9 243.28-28.85Q243.98-28.8 245.33-28.8L245.33-28.8Q246.78-28.75 248.93-28.75L248.93-28.75Q252.13-28.75 253.93-28.8L253.93-28.8Q255.68-28.9 259.78-28.9L259.78-28.9Q262.58-28.9 264.93-27.9L264.93-27.9Q267.88-26.65 269.63-24L269.63-24Q271.63-20.9 271.63-15.95L271.63-15.95Q271.63-11.5 270.66-8.5 269.68-5.5 267.53-3.65L267.53-3.65Q265.33-1.75 261.76-0.88 258.18 0 252.83 0L252.83 0 247.18 0ZM253.18-5.65Q254.28-5.65 254.63-5.75L254.63-5.75Q254.98-5.85 255.13-6L255.13-6Q255.88-6.75 256.53-10.45L256.53-10.45Q257.08-13.9 257.08-16.9L257.08-16.9 257.08-17.7Q257.08-19.45 256.83-21.05L256.83-21.05Q256.63-23 256.03-24.25L256.03-24.25Q255.68-24.8 255.13-24.8L255.13-24.8Q254.68-24.8 254.03-24.55L254.03-24.55 253.68-24.4Q253.68-23.25 253.58-19.25L253.58-19.25 253.53-16.15Q253.53-15.15 253.48-14.6L253.48-14.6 253.43-13.05 253.18-5.65Z" opacity="1" transform="matrix(1,0,0,1,0,0)" fill="#c8c8c8" class="undefined-text-1" data-fill-palette-color="secondary" id="text-1"></path></svg></g></svg></g></svg></g></svg></g><g transform="matrix(1,0,0,1,427.1263668261321,0)"><svg viewBox="0 0 214.48851839999998 214.48851839999998" height="214.48851839999998" width="214.48851839999998"><g><svg></svg></g><g id="icon-0"><svg viewBox="0 0 214.48851839999998 214.48851839999998" height="214.48851839999998" width="214.48851839999998"><g><rect width="195.02567136" height="195.02567136" x="9.731423519999993" y="9.731423519999993" fill="#000000" data-fill-palette-color="accent"></rect><rect width="195.02567136" height="195.02567136" x="-5.329070518200751e-15" y="-5.329070518200751e-15" fill="#000000" opacity="0.5" data-fill-palette-color="accent"></rect></g><g transform="matrix(1,0,0,1,27.80406719999999,77.93873306569063)"><svg viewBox="0 0 158.880384 58.61105226861872" height="58.61105226861872" width="158.880384"><g><svg xmlns="http://www.w3.org/2000/svg" xmlns:xlink="http://www.w3.org/1999/xlink" version="1.1" x="0" y="0" viewBox="0.29627254605293274 33.946922302246094 99.40641021728516 36.67107391357422" enable-background="new 0 33.947 100 36.669" xml:space="preserve" width="158.880384" height="58.61105226861872" class="icon-s-0" data-fill-palette-color="background" id="s-0"><g fill="#89939e" data-fill-palette-color="background"><path d="M15.524 55.357c-4.213 0-7.629 3.418-7.629 7.631s3.416 7.63 7.629 7.63c4.215 0 7.63-3.417 7.63-7.63S19.738 55.357 15.524 55.357zM15.524 66.189c-1.778 0-3.219-1.441-3.219-3.22s1.441-3.221 3.219-3.221c1.777 0 3.219 1.442 3.219 3.221C18.742 64.748 17.301 66.189 15.524 66.189z" fill="#89939e" data-fill-palette-color="background"></path><path d="M82.53 55.355c-4.215 0-7.632 3.417-7.632 7.629 0 4.214 3.417 7.631 7.632 7.631 4.212 0 7.63-3.417 7.63-7.631C90.16 58.772 86.742 55.355 82.53 55.355zM82.53 66.189c-1.778 0-3.222-1.441-3.222-3.22s1.443-3.221 3.222-3.221 3.223 1.442 3.223 3.221S84.309 66.189 82.53 66.189z" fill="#89939e" data-fill-palette-color="background"></path><path d="M78.23 44.515c0 0-18.764-8.75-24.754-10.018-5.987-1.268-26.597-0.115-28.554 1.151l-11.515 5.64L2.125 46.815 0.298 57.465c0 0-0.05 6.318 0.388 7.773h5.527l0.071-2.25c0-5.103 4.138-9.24 9.243-9.24 5.103 0 9.238 4.138 9.238 9.24l0.158 2.25h48.359l0.007-2.83c0-5.103 3.856-8.87 8.959-8.87s9.523 3.768 9.523 8.87l0.19 2.616c0 0 5.845 0.33 7.688-0.361 0 0 0.69-9.787-2.878-13.357C93.603 48.308 87.213 46.44 78.23 44.515zM25.956 45.896c0 0 2.363-5.01 4.943-6.924 1.911-1.627 12.446-1.583 12.446-1.583l0.389 9.715L25.956 45.896zM71.613 48.198l-24.698-0.978-0.577-9.846c9.154-0.344 19.576 4.549 25.563 8.06C77.89 48.946 71.613 48.198 71.613 48.198z" fill="#89939e" data-fill-palette-color="background"></path></g></svg></g></svg></g></svg></g></svg></g></svg></g><defs></defs></svg><rect width="395.52" height="132.22027847385235" fill="none" stroke="none" visibility="hidden"></rect></g></svg></g></svg>